<svg xmlns="http://www.w3.org/2000/svg" viewBox="0 0 1000 1000"><path d="M243.52 12.45c-.61 1.43-7.35 66.99-15.32 145.63-7.97 78.64-14.91 145.43-15.52 148.49l-.82 5.72h35.54l3.88-13.89c16.75-58.82 47.18-116.02 81.09-152.37 35.74-38.4 86.6-66.18 136.64-74.96 23.9-4.08 61.07-3.27 82.52 2.04 50.24 12.05 89.66 49.22 100.29 94.57 4.08 17.16 3.88 48-.2 64.75-12.46 49.84-47.18 89.26-123.98 140.73l-28.39 18.79H183.06V451.18l105.8.21c82.52 0 104.78.61 101.72 2.45-51.06 32.68-77.62 51.47-102.33 72.51L276 536.97h-92.94v57.2h20.42c11.23 0 20.43.61 20.43 1.22s-4.08 7.97-9.19 16.14c-20.43 33.7-31.05 69.04-33.09 109.27-2.04 44.53 5.31 80.07 24.92 119.49 48 97.02 157.07 155.23 279.82 149.31 48-2.25 78.43-8.17 140.93-27.78 50.04-15.73 74.35-21.24 83.74-19.61 13.89 2.65 29.41 21.04 32.68 38.6l1.43 7.56h15.11c13.89 0 15.12-.41 16.14-4.7.41-2.45 9.8-66.99 20.43-143.38 10.82-76.39 20.02-141.96 20.63-145.63l1.23-6.54H786.42l-6.95 15.73C731.27 815.98 670.2 888.7 598.91 919.54c-10.01 4.29-27.98 10.21-39.83 13.07-19.2 4.9-25.74 5.52-58.42 5.52-40.85.2-59.64-3.06-85.38-14.91-33.7-15.11-63.73-44.53-77.21-75.16-20.63-46.57-17.97-109.89 6.54-153.6 16.13-28.59 53.92-65.97 93.75-92.73l11.23-7.56H818.26v-57.2H683.28c-76.8 0-134.4-.82-133.78-1.84s9.6-6.54 19.81-12.26c27.57-15.73 73.53-45.55 91.91-59.44l15.93-12.25h141.14v-59.24h-41.87c-23.08 0-41.87-.61-41.87-1.23 0-.61 2.66-4.9 5.92-9.6 34.93-51.06 45.96-129.09 27.57-197.72-10.01-37.58-32.48-74.76-61.48-101.92-68.22-63.73-145.63-83.74-245.92-63.32-10.82 2.25-42.28 11.44-69.65 20.22-61.48 19.81-70.26 21.85-83.13 18.59-5.11-1.23-12.25-4.49-15.93-7.35-6.53-4.9-15.32-21.24-17.97-33.09l-1.43-6.54h-14.09c-9.61.02-14.51.84-14.92 2.47z"/></svg>